<?xml version="1.0" encoding="UTF-8"?>
<svg id="_레이어_2" data-name="레이어 2" xmlns="http://www.w3.org/2000/svg" viewBox="0 0 367.63 93.1">
  <defs>
    <style>
      .cls-1 {
        fill: #f08300;
        stroke-width: 0px;
      }
    </style>
  </defs>
  <g id="_レイヤー_1" data-name="レイヤー 1">
    <g>
      <g>
        <g>
          <g>
            <path class="cls-1" d="M19.48,10.38h3.98v11.46h-9.7v-6.28l-3.74,3.39H.3L19.71,1.42l9.74-.04-9.98,9Z"/>
            <path class="cls-1" d="M61.37,3.05l-2.57,13.21h-9.7l1.99-10.09h-5.73l3.12,15.67h-9.7l-3.12-15.67h-3.47v-3.12h2.85l-.35-1.68h9.7l.35,1.68h16.64Z"/>
            <path class="cls-1" d="M93.56,3.05v3.12h-9.86v15.67h-9.7V6.17h-9.9v-3.12h9.9V.71h9.7v2.34h9.86ZM65.35,9.56h6.9l-1.25,12.28h-6.9l1.25-12.28ZM92.36,9.56l1.21,12.28h-6.9l-1.21-12.28h6.9Z"/>
            <path class="cls-1" d="M109.35,5.98h-13.06V1.38h13.06v4.6ZM125.76,5.43l-8.73,16.41h-9.7l8.73-16.41h9.7Z"/>
          </g>
          <g>
            <path class="cls-1" d="M160.9,1.38l12.78,20.46h-9.7l-8.34-13.33-3.31,8.34h-7.68l6.2-15.47h10.06Z"/>
            <path class="cls-1" d="M176.41,6.52h3.47v9.78h-3.47V6.52ZM184.98,16.3h-3.47V6.52h3.47v9.78ZM197.3,7.15l-5.5,14.69h-7.29l5.53-14.69h7.25Z"/>
            <path class="cls-1" d="M209.69,8.47h14.96v4.6h-14.96v8.77h-9.71V1.38h9.71v7.09ZM220.44,5.59h-2.73V.64h2.73v4.95ZM224.84.64v4.95h-2.77V.64h2.77Z"/>
            <path class="cls-1" d="M256.81,3.05v3.12h-9.86v15.67h-9.7V6.17h-9.9v-3.12h9.9V.71h9.7v2.34h9.86ZM228.59,9.56h6.9l-1.25,12.28h-6.9l1.25-12.28ZM255.6,9.56l1.21,12.28h-6.9l-1.21-12.28h6.9Z"/>
            <path class="cls-1" d="M272.6,5.98h-13.06V1.38h13.06v4.6ZM289,5.43l-8.73,16.41h-9.71l8.73-16.41h9.71Z"/>
          </g>
          <path class="cls-1" d="M138.39,9.86c0,1.56-1.26,2.81-2.81,2.81s-2.81-1.26-2.81-2.81,1.26-2.81,2.81-2.81,2.81,1.31,2.81,2.81Z"/>
        </g>
        <g>
          <path class="cls-1" d="M307.91.23v1.51h8.89v2.81h-8.89v.75h7.39v8.54h-2.71v.88h4.92v2.79h-4.92v2.26c0,3.02-1.46,3.39-5.28,3.39-.1-1-.35-2.19-.83-3.09h2.14c.28,0,.38-.15.38-.4v-2.16h-6.48c.56.58,1.46,1.46,2.04,2.01l-2.31,2.16c-.83-.98-1.3-1.46-3.29-3.24l.98-.93h-4.85v-2.79h13.92v-.88h-11.76V5.3h7.09v-.75h-8.85V1.73h8.85V.23h3.59ZM300.65,8.44h3.67v-.8h-3.67v.8ZM300.65,11.58h3.67v-.98h-3.67v.98ZM307.91,8.44h3.89v-.8h-3.89v.8ZM307.91,10.6v.98h3.89v-.98h-3.89Z"/>
          <path class="cls-1" d="M330.5.68v10.2h-6.08v12.26h-3.37V.68h9.45ZM324.42,4.65h2.94v-1.03h-2.94v1.03ZM324.42,8.12h2.94v-1.11h-2.94v1.11ZM341.81.7v18.84c0,2.19-.48,3.54-5.43,3.62-.2-1.18-.55-2.29-1.08-3.29h2.74c.23,0,.28-.15.28-.33v-8.64h-6.16V.7h9.65ZM335.35,4.7h2.96v-1.11h-2.96v1.11ZM335.35,8.12h2.96v-1.06h-2.96v1.06Z"/>
          <path class="cls-1" d="M359.39,0v1.73h8.24v3.12h-17.59c0,9.02-.18,10.95-1.66,15.48-.15.6-.35,1.21-1.31,2.89-.85-1.11-1.73-2.14-2.76-3.04.86-1.68,2.04-4.12,2.24-9,.05-.75.05-1.66.05-9.45h8.72V0h4.07ZM359.99,5.38v2.28h7.11v3.04h-7.11v2.26h6.48v9.7h-3.62v-1h-8.32v1.26h-3.64v-9.95h5.48v-7.59h3.62ZM354.54,18.52h8.32v-2.51h-8.32v2.51Z"/>
        </g>
      </g>
      <g>
        <path class="cls-1" d="M50.27,73.3H16.85c.3,2.69,1.03,4.7,2.18,6.02,1.62,1.9,3.73,2.85,6.34,2.85,1.65,0,3.21-.42,4.69-1.26.9-.53,1.88-1.47,2.92-2.81l16.41,1.6c-2.51,4.36-5.54,7.48-9.08,9.37-3.55,1.89-8.64,2.84-15.26,2.84-5.76,0-10.29-.81-13.59-2.44-3.3-1.62-6.04-4.21-8.2-7.74-2.17-3.54-3.25-7.7-3.25-12.48,0-6.8,2.17-12.3,6.52-16.51,4.34-4.2,10.35-6.31,18.01-6.31,6.21,0,11.12.94,14.71,2.83,3.59,1.89,6.33,4.62,8.22,8.2,1.88,3.58,2.82,8.23,2.82,13.97v1.88ZM33.42,65.31c-.33-3.22-1.2-5.53-2.62-6.92-1.42-1.39-3.28-2.09-5.58-2.09-2.67,0-4.79,1.05-6.39,3.15-1.02,1.31-1.66,3.26-1.94,5.86h16.52Z"/>
        <path class="cls-1" d="M142.07,67.01h8.54v24.63h-20.83v-13.49l-8.03,7.28h-20.84l41.67-37.66,20.92-.15-21.42,19.39Z"/>
        <path class="cls-1" d="M230.41,51.28l-5.52,28.37h-20.84l4.27-21.68h-12.3l6.69,33.66h-20.83l-6.7-33.66h-7.45v-6.69h6.11l-.75-3.67h20.84l.76,3.67h35.73Z"/>
        <path class="cls-1" d="M331.81,57.55h-28.03v-9.94h28.03v9.94ZM367.03,56.38l-18.74,35.23-20.83.02,18.75-35.25h20.83Z"/>
        <path class="cls-1" d="M55.34,63.64h16.16l5.27-15.98,5.08,15.98h15.8l-12.71,9.62,4.72,15.26-12.89-9.26-13.08,9.26,4.72-15.07-13.08-9.81ZM65.87,66.73l6.54,5.08-2.54,7.81,6.9-4.9,6.36,4.9-2.54-7.81,6.54-5.08h-7.81l-2.54-7.63-2.9,7.63h-7.99Z"/>
        <g>
          <polygon class="cls-1" points="298.73 51.28 298.73 57.93 277.59 57.93 277.59 91.61 256.67 91.61 256.67 57.93 235.46 57.93 235.46 51.28 256.67 51.28 256.67 46.31 277.59 46.31 277.59 51.28 298.73 51.28"/>
          <path class="cls-1" d="M266.74,29.47c.18,0,.5-.02,1.17-.04,4.88-.14,24.99.56,31.22,21.96l.82.05.62,5.57-1.1.28c.15,1.3.31,3.38.31,6.04.27-.17.59-.23.93-.18.72.1,1.27.5,1.04,2-.18,1.1-.47,3.85-.69,5.45,1.03,2.06,1.61,4.84,1.15,8.64-1.47,12.2-13.33,12.17-13.33,12.17,0,0-.75,2.15-3.24,1.52-2.49-.63-2.64-.93-.11-16.41,2.52-15.47,3.7-14.75,5.49-14.6,2.76.23,2.64,2.52,3.03,2.91.13.13,1.21.41,2.55,1.16.09-1.51.25-5.33-.07-8.64l-.78-.16-.6-5.07.47-.19c-.95-3.72-6.68-17.14-25.59-17.3-.6,0-1.64-.02-2.38-.03-.46,0-.77,0-1,0"/>
          <path class="cls-1" d="M267.6,29.47c-.18,0-.21.02-.88,0-4.88-.14-25.32.57-31.56,21.97l-.82.04-.62,5.57,1.09.28c-.14,1.3-.31,3.38-.31,6.04-.27-.17-.59-.23-.94-.18-.72.1-1.27.5-1.04,2,.17,1.1.46,3.85.68,5.45-1.03,2.06-1.61,4.84-1.15,8.64,1.47,12.2,13.33,12.17,13.33,12.17,0,0,.75,2.15,3.24,1.52,2.49-.63,2.63-.93.11-16.41-2.52-15.47-3.7-14.75-5.48-14.6-2.76.23-2.64,2.52-3.03,2.91-.13.13-1.21.41-2.55,1.16-.09-1.51-.25-5.33.07-8.64l.78-.16.61-5.07-.47-.19c.95-3.72,6.69-17.14,25.6-17.3.6,0,1.62-.06,2.35-.07.46,0,.83-.01,1.06-.01"/>
        </g>
      </g>
    </g>
  </g>
</svg>